<?xml version="1.0" encoding="utf-8" ?>
<svg baseProfile="full" height="250mm" version="1.1" width="150mm" xmlns="http://www.w3.org/2000/svg" xmlns:ev="http://www.w3.org/2001/xml-events" xmlns:xlink="http://www.w3.org/1999/xlink">
  <defs>
    <style type="text/css">
<![CDATA[.pattern { fill: black; stroke: none; }]]>    </style>
  </defs>
  <rect fill="white" height="250mm" width="150mm" x="0" y="0"/>
  <g id="checkerboard">
    <rect class="pattern" height="12.5mm" width="25mm" x="25mm" y="12.5mm"/>
    <rect class="pattern" height="12.5mm" width="25mm" x="75mm" y="12.5mm"/>
    <rect class="pattern" height="12.5mm" width="12.5mm" x="125mm" y="12.5mm"/>
    <rect class="pattern" height="25mm" width="12.5mm" x="12.5mm" y="25mm"/>
    <rect class="pattern" height="25mm" width="25mm" x="50mm" y="25mm"/>
    <rect class="pattern" height="25mm" width="25mm" x="100mm" y="25mm"/>
    <rect class="pattern" height="25mm" width="25mm" x="25mm" y="50mm"/>
    <rect class="pattern" height="25mm" width="25mm" x="75mm" y="50mm"/>
    <rect class="pattern" height="25mm" width="12.5mm" x="125mm" y="50mm"/>
    <rect class="pattern" height="25mm" width="12.5mm" x="12.5mm" y="75mm"/>
    <rect class="pattern" height="25mm" width="25mm" x="50mm" y="75mm"/>
    <rect class="pattern" height="25mm" width="25mm" x="100mm" y="75mm"/>
    <rect class="pattern" height="25mm" width="25mm" x="25mm" y="100mm"/>
    <rect class="pattern" height="25mm" width="25mm" x="75mm" y="100mm"/>
    <rect class="pattern" height="25mm" width="12.5mm" x="125mm" y="100mm"/>
    <rect class="pattern" height="25mm" width="12.5mm" x="12.5mm" y="125mm"/>
    <rect class="pattern" height="25mm" width="25mm" x="50mm" y="125mm"/>
    <rect class="pattern" height="25mm" width="25mm" x="100mm" y="125mm"/>
    <rect class="pattern" height="25mm" width="25mm" x="25mm" y="150mm"/>
    <rect class="pattern" height="25mm" width="25mm" x="75mm" y="150mm"/>
    <rect class="pattern" height="25mm" width="12.5mm" x="125mm" y="150mm"/>
    <rect class="pattern" height="25mm" width="12.5mm" x="12.5mm" y="175mm"/>
    <rect class="pattern" height="25mm" width="25mm" x="50mm" y="175mm"/>
    <rect class="pattern" height="25mm" width="25mm" x="100mm" y="175mm"/>
    <rect class="pattern" height="25mm" width="25mm" x="25mm" y="200mm"/>
    <rect class="pattern" height="25mm" width="25mm" x="75mm" y="200mm"/>
    <rect class="pattern" height="25mm" width="12.5mm" x="125mm" y="200mm"/>
    <rect class="pattern" height="12.5mm" width="12.5mm" x="12.5mm" y="225mm"/>
    <rect class="pattern" height="12.5mm" width="25mm" x="50mm" y="225mm"/>
    <rect class="pattern" height="12.5mm" width="25mm" x="100mm" y="225mm"/>
  </g>
  <g style="font-size:4mm;font-family:monospace;stroke:none;fill:rgb(120, 120, 120);">
    <text x="6.25mm" y="246.5mm">pcc::ClippedCheckerboard 150mm x 250mm, 5x9 à 25mm</text>
  </g>
</svg>
